#Comment line ignore any data following # character 
#Hierarchical Translation and Rotation (.htr) file 
[Header]	
#Header keywords are followed by a single value 
FileType HTR		#Single word string
DataType HTRS		#Translation followed by rotation and scale data
FileVersion 1		#integer
NumSegments 84		#integer
NumFrames 2		#integer
DataFrameRate 30		#integer, data frame rate in this file
EulerRotationOrder ZYX
CalibrationUnits mm
RotationUnits Degrees
GlobalAxisofGravity Y
BoneLengthAxis Y
ScaleFactor 1.00
[SegmentNames&Hierarchy]
#CHILD	PARENT
MASTER GLOBAL
root MASTER
chest root
L_mid_tent01 root
R_mid_tent01 root
spine01 root
Bip01_Neck chest
L_humerus chest
R_humerus chest
weapon_bone chest
Bip01_Head Bip01_Neck
eye_left_bone Bip01_Head
eye_right_bone Bip01_Head
L_forearm L_humerus
L_front_hand L_forearm
L_weapon_bone L_forearm
L_front_hand01_01 L_front_hand
L_front_hand02_01 L_front_hand
L_front_hand03_01 L_front_hand
L_front_hand01_02 L_front_hand01_01
L_front_hand02_02 L_front_hand02_01
L_front_hand03_02 L_front_hand03_01
R_forearm R_humerus
R_front_hand R_forearm
R_weapon_bone R_forearm
R_front_hand01_01 R_front_hand
R_front_hand02_01 R_front_hand
R_front_hand03_01 R_front_hand
R_front_hand01_02 R_front_hand01_01
R_front_hand02_02 R_front_hand02_01
R_front_hand03_02 R_front_hand03_01
null_rope01_connect L_mid_tent01
Rope1_Seg01 null_rope01_connect
Rope1_Seg02 Rope1_Seg01
Rope1_Seg03 Rope1_Seg02
Rope1_Seg04 Rope1_Seg03
Rope1_Seg05 Rope1_Seg04
Rope1_Seg06 Rope1_Seg05
Rope1_Seg07 Rope1_Seg06
Rope1_Seg09 Rope1_Seg07
L_mid_hand01 Rope1_Seg09
L_mid_hand02 Rope1_Seg09
L_mid_hand03 Rope1_Seg09
null_rope02_connect R_mid_tent01
Rope2_Seg01 null_rope02_connect
Rope2_Seg02 Rope2_Seg01
Rope2_Seg03 Rope2_Seg02
Rope2_Seg04 Rope2_Seg03
Rope2_Seg05 Rope2_Seg04
Rope2_Seg06 Rope2_Seg05
Rope2_Seg07 Rope2_Seg06
Rope2_Seg09 Rope2_Seg07
R_mid_hand01 Rope2_Seg09
R_mid_hand02 Rope2_Seg09
R_mid_hand03 Rope2_Seg09
spine02 spine01
spine03 spine02
pelvis spine03
null_rope03_connect pelvis
null_rope04_connect pelvis
Rope3_Seg01 null_rope03_connect
Rope3_Seg02 Rope3_Seg01
Rope3_Seg03 Rope3_Seg02
Rope3_Seg04 Rope3_Seg03
Rope3_Seg05 Rope3_Seg04
Rope3_Seg06 Rope3_Seg05
Rope3_Seg07 Rope3_Seg06
Rope3_Seg08 Rope3_Seg07
Rope3_Seg09 Rope3_Seg08
R_rear_hand01 Rope3_Seg09
R_rear_hand02 Rope3_Seg09
R_rear_hand03 Rope3_Seg09
Rope4_Seg01 null_rope04_connect
Rope4_Seg02 Rope4_Seg01
Rope4_Seg03 Rope4_Seg02
Rope4_Seg04 Rope4_Seg03
Rope4_Seg05 Rope4_Seg04
Rope4_Seg06 Rope4_Seg05
Rope4_Seg07 Rope4_Seg06
Rope4_Seg08 Rope4_Seg07
Rope4_Seg09 Rope4_Seg08
L_rear_hand01 Rope4_Seg09
L_rear_hand02 Rope4_Seg09
L_rear_hand03 Rope4_Seg09
[BasePosition]
#SegmentName Tx, Ty, Tz, Rx, Ry, Rz, BoneLength
MASTER 0.000000 0.000000 0.000000 -90.000000 0.000000 0.000000 10.000000 
root 0.000000 0.000000 0.000000 0.000000 0.000000 0.000000 10.000000 
chest 0.000000 0.000000 0.000000 0.000000 0.000000 0.000000 10.000000 
L_mid_tent01 0.000000 0.000000 0.000000 0.000000 0.000000 0.000000 10.000000 
R_mid_tent01 0.000000 0.000000 0.000000 0.000000 0.000000 0.000000 10.000000 
spine01 0.000000 0.000000 0.000000 0.000000 0.000000 0.000000 10.000000 
Bip01_Neck 0.000000 0.000000 0.000000 0.000000 0.000000 0.000000 10.000000 
L_humerus 0.000000 0.000000 0.000000 0.000000 0.000000 0.000000 10.000000 
R_humerus 0.000000 0.000000 0.000000 0.000000 0.000000 0.000000 10.000000 
weapon_bone 0.000000 0.000000 0.000000 0.000000 0.000000 0.000000 10.000000 
Bip01_Head 0.000000 0.000000 0.000000 0.000000 0.000000 0.000000 10.000000 
eye_left_bone 0.000000 0.000000 0.000000 0.000000 0.000000 0.000000 10.000000 
eye_right_bone 0.000000 0.000000 0.000000 0.000000 0.000000 0.000000 10.000000 
L_forearm 0.000000 0.000000 0.000000 0.000000 0.000000 0.000000 10.000000 
L_front_hand 0.000000 0.000000 0.000000 0.000000 0.000000 0.000000 10.000000 
L_weapon_bone 0.000000 0.000000 0.000000 0.000000 0.000000 0.000000 10.000000 
L_front_hand01_01 0.000000 0.000000 0.000000 0.000000 0.000000 0.000000 10.000000 
L_front_hand02_01 0.000000 0.000000 0.000000 0.000000 0.000000 0.000000 10.000000 
L_front_hand03_01 0.000000 0.000000 0.000000 0.000000 0.000000 0.000000 10.000000 
L_front_hand01_02 0.000000 0.000000 0.000000 0.000000 0.000000 0.000000 10.000000 
L_front_hand02_02 0.000000 0.000000 0.000000 0.000000 0.000000 0.000000 10.000000 
L_front_hand03_02 0.000000 0.000000 0.000000 0.000000 0.000000 0.000000 10.000000 
R_forearm 0.000000 0.000000 0.000000 0.000000 0.000000 0.000000 10.000000 
R_front_hand 0.000000 0.000000 0.000000 0.000000 0.000000 0.000000 10.000000 
R_weapon_bone 0.000000 0.000000 0.000000 0.000000 0.000000 0.000000 10.000000 
R_front_hand01_01 0.000000 0.000000 0.000000 0.000000 0.000000 0.000000 10.000000 
R_front_hand02_01 0.000000 0.000000 0.000000 0.000000 0.000000 0.000000 10.000000 
R_front_hand03_01 0.000000 0.000000 0.000000 0.000000 0.000000 0.000000 10.000000 
R_front_hand01_02 0.000000 0.000000 0.000000 0.000000 0.000000 0.000000 10.000000 
R_front_hand02_02 0.000000 0.000000 0.000000 0.000000 0.000000 0.000000 10.000000 
R_front_hand03_02 0.000000 0.000000 0.000000 0.000000 0.000000 0.000000 10.000000 
null_rope01_connect 0.000000 0.000000 0.000000 0.000000 0.000000 0.000000 10.000000 
Rope1_Seg01 0.000000 0.000000 0.000000 0.000000 0.000000 0.000000 10.000000 
Rope1_Seg02 0.000000 0.000000 0.000000 0.000000 0.000000 0.000000 10.000000 
Rope1_Seg03 0.000000 0.000000 0.000000 0.000000 0.000000 0.000000 10.000000 
Rope1_Seg04 0.000000 0.000000 0.000000 0.000000 0.000000 0.000000 10.000000 
Rope1_Seg05 0.000000 0.000000 0.000000 0.000000 0.000000 0.000000 10.000000 
Rope1_Seg06 0.000000 0.000000 0.000000 0.000000 0.000000 0.000000 10.000000 
Rope1_Seg07 0.000000 0.000000 0.000000 0.000000 0.000000 0.000000 10.000000 
Rope1_Seg09 0.000000 0.000000 0.000000 0.000000 0.000000 0.000000 10.000000 
L_mid_hand01 0.000000 0.000000 0.000000 0.000000 0.000000 0.000000 10.000000 
L_mid_hand02 0.000000 0.000000 0.000000 0.000000 0.000000 0.000000 10.000000 
L_mid_hand03 0.000000 0.000000 0.000000 0.000000 0.000000 0.000000 10.000000 
null_rope02_connect 0.000000 0.000000 0.000000 0.000000 0.000000 0.000000 10.000000 
Rope2_Seg01 0.000000 0.000000 0.000000 0.000000 0.000000 0.000000 10.000000 
Rope2_Seg02 0.000000 0.000000 0.000000 0.000000 0.000000 0.000000 10.000000 
Rope2_Seg03 0.000000 0.000000 0.000000 0.000000 0.000000 0.000000 10.000000 
Rope2_Seg04 0.000000 0.000000 0.000000 0.000000 0.000000 0.000000 10.000000 
Rope2_Seg05 0.000000 0.000000 0.000000 0.000000 0.000000 0.000000 10.000000 
Rope2_Seg06 0.000000 0.000000 0.000000 0.000000 0.000000 0.000000 10.000000 
Rope2_Seg07 0.000000 0.000000 0.000000 0.000000 0.000000 0.000000 10.000000 
Rope2_Seg09 0.000000 0.000000 0.000000 0.000000 0.000000 0.000000 10.000000 
R_mid_hand01 0.000000 0.000000 0.000000 0.000000 0.000000 0.000000 10.000000 
R_mid_hand02 0.000000 0.000000 0.000000 0.000000 0.000000 0.000000 10.000000 
R_mid_hand03 0.000000 0.000000 0.000000 0.000000 0.000000 0.000000 10.000000 
spine02 0.000000 0.000000 0.000000 0.000000 0.000000 0.000000 10.000000 
spine03 0.000000 0.000000 0.000000 0.000000 0.000000 0.000000 10.000000 
pelvis 0.000000 0.000000 0.000000 0.000000 0.000000 0.000000 10.000000 
null_rope03_connect 0.000000 0.000000 0.000000 0.000000 0.000000 0.000000 10.000000 
null_rope04_connect 0.000000 0.000000 0.000000 0.000000 0.000000 0.000000 10.000000 
Rope3_Seg01 0.000000 0.000000 0.000000 0.000000 0.000000 0.000000 10.000000 
Rope3_Seg02 0.000000 0.000000 0.000000 0.000000 0.000000 0.000000 10.000000 
Rope3_Seg03 0.000000 0.000000 0.000000 0.000000 0.000000 0.000000 10.000000 
Rope3_Seg04 0.000000 0.000000 0.000000 0.000000 0.000000 0.000000 10.000000 
Rope3_Seg05 0.000000 0.000000 0.000000 0.000000 0.000000 0.000000 10.000000 
Rope3_Seg06 0.000000 0.000000 0.000000 0.000000 0.000000 0.000000 10.000000 
Rope3_Seg07 0.000000 0.000000 0.000000 0.000000 0.000000 0.000000 10.000000 
Rope3_Seg08 0.000000 0.000000 0.000000 0.000000 0.000000 0.000000 10.000000 
Rope3_Seg09 0.000000 0.000000 0.000000 0.000000 0.000000 0.000000 10.000000 
R_rear_hand01 0.000000 0.000000 0.000000 0.000000 0.000000 0.000000 10.000000 
R_rear_hand02 0.000000 0.000000 0.000000 0.000000 0.000000 0.000000 10.000000 
R_rear_hand03 0.000000 0.000000 0.000000 0.000000 0.000000 0.000000 10.000000 
Rope4_Seg01 0.000000 0.000000 0.000000 0.000000 0.000000 0.000000 10.000000 
Rope4_Seg02 0.000000 0.000000 0.000000 0.000000 0.000000 0.000000 10.000000 
Rope4_Seg03 0.000000 0.000000 0.000000 0.000000 0.000000 0.000000 10.000000 
Rope4_Seg04 0.000000 0.000000 0.000000 0.000000 0.000000 0.000000 10.000000 
Rope4_Seg05 0.000000 0.000000 0.000000 0.000000 0.000000 0.000000 10.000000 
Rope4_Seg06 0.000000 0.000000 0.000000 0.000000 0.000000 0.000000 10.000000 
Rope4_Seg07 0.000000 0.000000 0.000000 0.000000 0.000000 0.000000 10.000000 
Rope4_Seg08 0.000000 0.000000 0.000000 0.000000 0.000000 0.000000 10.000000 
Rope4_Seg09 0.000000 0.000000 0.000000 0.000000 0.000000 0.000000 10.000000 
L_rear_hand01 0.000000 0.000000 0.000000 0.000000 0.000000 0.000000 10.000000 
L_rear_hand02 0.000000 0.000000 0.000000 0.000000 0.000000 0.000000 10.000000 
L_rear_hand03 0.000000 0.000000 0.000000 0.000000 0.000000 0.000000 10.000000 
#Beginning of Data. Separated by tabs
#Fr	Tx	Ty	Tz	Rx	Ry	Rz	SF
[MASTER]
31 -115.823097 4011.737793 32.322952 0.001660 0.001660 0.001660 4013.539551
32 -115.823097 4011.737793 34.126175 0.001660 0.001660 0.001660 4013.554443
[root]
31 2.696667 444.668884 1104.892578 -96.235016 -37.029194 -86.953636 1191.018677
32 2.696667 444.668884 1104.892578 -96.235016 -37.029194 -86.953636 1191.018677
[chest]
31 -84.512650 -34.090519 0.000000 -11.861947 -25.654465 150.880814 91.129311
32 -84.512650 -34.090519 0.000000 -11.062816 -24.983730 149.909348 91.129311
[L_mid_tent01]
31 27.298763 22.179008 -249.918686 -3.228872 35.686756 62.953136 252.381622
32 27.298752 22.179008 -249.918686 -4.997968 34.769783 59.471306 252.381622
[R_mid_tent01]
31 23.228794 24.509907 226.238495 173.895706 -30.891880 58.389252 228.744751
32 23.228794 24.509907 226.238495 175.397232 -30.477465 56.145664 228.744751
[spine01]
31 -0.361383 -0.195265 0.000000 -0.000001 -0.000007 22.052340 0.410763
32 -0.361383 -0.195265 0.000000 -0.000001 -0.000007 22.052340 0.410763
[Bip01_Neck]
31 165.484543 71.581718 0.000119 176.643677 -1.657967 43.431911 180.302734
32 165.484543 71.581718 0.000119 176.643677 -1.657967 43.431911 180.302734
[L_humerus]
31 -13.983130 -135.272980 -120.471481 151.121033 74.613686 -117.480255 181.680161
32 -13.983130 -135.272980 -120.471481 143.641815 78.346489 -125.190323 181.680161
[R_humerus]
31 -13.983309 -135.273102 125.287651 -172.271027 -71.663696 -92.712219 184.909012
32 -13.983309 -135.273102 125.287651 -172.479858 -75.866394 -92.533882 184.909012
[weapon_bone]
31 235.964890 -300.705902 0.000000 0.000000 -89.951546 -128.212341 382.234833
32 235.964890 -300.705902 0.000000 0.000000 -89.951546 -128.212341 382.234833
[Bip01_Head]
31 217.315979 193.779602 33.482967 32.574516 13.922997 -44.059910 293.083405
32 217.316071 193.779709 33.482960 32.574520 13.922998 -44.059910 293.083527
[eye_left_bone]
31 -24.626970 125.451866 -64.772606 0.000000 -90.000000 -99.840431 143.318359
32 -24.626970 125.451866 -64.772606 0.000000 -90.000000 -99.840431 143.318359
[eye_right_bone]
31 -24.626970 125.451866 64.327362 0.000000 -89.965736 80.156380 143.117676
32 -24.626970 125.451866 64.327362 0.000000 -89.965736 80.156380 143.117676
[L_forearm]
31 322.776093 0.000000 -0.000119 0.000297 -0.002328 -104.533829 322.776093
32 322.776093 0.000000 -0.000119 0.000280 -0.002330 -103.724915 322.776093
[L_front_hand]
31 241.149185 -0.042021 -3.300071 0.836591 -1.835726 -27.423458 241.171753
32 241.149185 -0.042021 -3.300071 0.836591 -1.835726 -27.423458 241.171753
[L_weapon_bone]
31 156.183838 0.000000 0.000000 0.000014 0.000007 0.000001 156.183838
32 156.183838 0.000000 0.000000 0.000014 0.000007 0.000001 156.183838
[L_front_hand01_01]
31 86.095154 20.947098 -0.655860 -0.366594 -0.477154 75.385574 88.609184
32 86.095154 20.947098 -0.655860 -0.366594 -0.477154 75.385574 88.609184
[L_front_hand02_01]
31 86.935165 -11.437475 24.513514 154.399811 -59.883842 -61.369598 91.046425
32 86.935165 -11.437475 24.513514 154.399796 -59.883835 -61.369587 91.046425
[L_front_hand03_01]
31 86.637497 -14.123976 -20.424902 -153.913849 58.118122 -62.702850 90.126129
32 86.637497 -14.123976 -20.424902 -153.913849 58.118122 -62.702866 90.126129
[L_front_hand01_02]
31 71.020905 -0.000179 0.000030 0.001476 0.001825 -12.083249 71.020905
32 71.020905 -0.000179 0.000030 0.001441 0.001853 -14.258900 71.020905
[L_front_hand02_02]
31 71.020927 -0.000119 0.000060 0.001476 0.001825 -12.083249 71.020927
32 71.020927 -0.000119 0.000060 0.001441 0.001853 -14.258900 71.020927
[L_front_hand03_02]
31 71.020905 -0.000060 0.000060 0.001476 0.001825 -12.083249 71.020905
32 71.020905 -0.000060 0.000060 0.001441 0.001853 -14.258900 71.020905
[R_forearm]
31 322.776428 -0.000060 0.000030 0.209242 0.047051 -103.498131 322.776428
32 322.776428 -0.000060 0.000030 0.206492 0.041655 -102.658104 322.776428
[R_front_hand]
31 238.847015 -0.006795 2.210259 42.936222 -10.646152 -26.312963 238.857239
32 238.847015 -0.006795 2.210259 42.936222 -10.646152 -26.312963 238.857239
[R_weapon_bone]
31 155.664093 0.002503 -0.000030 0.003487 0.001180 -90.988930 155.664078
32 155.664093 0.002503 -0.000030 0.003487 0.001180 -90.988930 155.664078
[R_front_hand01_01]
31 87.624611 14.231146 22.918642 -154.633499 -59.950619 61.746044 91.683487
32 87.624611 14.231146 22.918642 -154.633499 -59.950619 61.746044 91.683487
[R_front_hand02_01]
31 89.356956 14.367283 -19.491137 154.602661 58.302849 63.744389 92.579636
32 89.356956 14.367283 -19.491137 154.602676 58.302864 63.744389 92.579636
[R_front_hand03_01]
31 87.286232 -22.307278 -0.143439 0.162155 -0.423168 -75.767921 90.091743
32 87.286232 -22.307278 -0.143439 0.162155 -0.423168 -75.767921 90.091743
[R_front_hand01_02]
31 71.020905 0.000060 0.000119 0.001813 0.001491 11.142054 71.020905
32 71.020905 0.000060 0.000119 0.001828 0.001472 12.300462 71.020905
[R_front_hand02_02]
31 71.020844 -0.000030 -0.000119 0.001813 0.001491 11.142054 71.020836
32 71.020844 -0.000030 -0.000119 0.001828 0.001472 12.300462 71.020836
[R_front_hand03_02]
31 71.020905 0.000000 0.000030 0.001813 0.001491 11.142054 71.020905
32 71.020905 0.000000 0.000030 0.001828 0.001472 12.300462 71.020905
[null_rope01_connect]
31 328.732483 0.000000 -0.000238 -126.194946 -50.821281 -169.362656 328.732483
32 328.732483 0.000000 -0.000238 -126.058929 -51.564545 -166.569153 328.732483
[Rope1_Seg01]
31 -0.000011 -0.000793 0.000097 -10.124971 19.721149 173.601929 0.000799
32 -0.000012 -0.000818 0.000101 -11.347437 22.483646 169.932709 0.000824
[Rope1_Seg02]
31 139.999863 -0.000179 0.000000 6.396252 5.802176 19.475433 139.999863
32 139.999863 -0.000179 0.000000 4.893869 4.096792 20.528027 139.999863
[Rope1_Seg03]
31 139.999924 0.000060 -0.000060 1.575765 0.901162 4.417349 139.999924
32 139.999924 0.000060 -0.000060 1.033140 -0.965058 5.084134 139.999924
[Rope1_Seg04]
31 139.999924 -0.000060 -0.000119 30.803228 20.175726 39.750984 139.999924
32 139.999924 -0.000060 -0.000119 27.810656 18.357662 37.024372 139.999924
[Rope1_Seg05]
31 139.999832 0.000119 -0.000060 22.507607 27.761463 22.785391 139.999832
32 139.999832 0.000119 -0.000060 26.021389 29.248619 26.418638 139.999832
[Rope1_Seg06]
31 139.999954 0.000119 -0.000060 3.155884 8.619710 3.137438 139.999954
32 139.999954 0.000119 -0.000060 3.442026 9.156046 3.409868 139.999954
[Rope1_Seg07]
31 139.999985 0.000060 0.000000 1.260144 4.365576 1.331662 139.999985
32 139.999985 0.000060 0.000000 1.334732 4.556962 1.406132 139.999985
[Rope1_Seg09]
31 121.602913 0.000119 -0.000089 -89.793175 -1.359789 0.847147 121.602913
32 121.602913 0.000119 -0.000089 -89.793175 -1.359789 0.847147 121.602913
[L_mid_hand01]
31 103.859421 1.038730 8.195221 130.544342 -67.584518 -38.866932 104.187431
32 103.859421 1.038730 8.195221 130.544373 -67.584534 -38.866943 104.187431
[L_mid_hand02]
31 105.572853 -4.139662 -10.864139 -168.923172 43.409309 -73.498894 106.211075
32 105.572853 -4.139662 -10.864139 -168.923172 43.409317 -73.498901 106.211075
[L_mid_hand03]
31 104.641464 17.579376 -3.913581 -6.012625 17.808172 74.893669 106.179977
32 104.641464 17.579376 -3.913581 -6.012628 17.808178 74.893669 106.179977
[null_rope02_connect]
31 328.732849 0.000179 -0.000119 -91.263443 59.752502 19.619875 328.732849
32 328.732849 0.000179 -0.000119 -91.556831 60.432320 17.473537 328.732849
[Rope2_Seg01]
31 0.000062 0.000055 0.000000 80.153732 23.903843 11.638625 0.000083
32 0.000063 0.000052 0.000000 80.242668 25.068087 12.405213 0.000082
[Rope2_Seg02]
31 139.999741 -0.000060 -0.000119 -2.682943 -5.041499 -5.096281 139.999756
32 139.999741 -0.000060 -0.000119 -2.411822 -4.899685 -4.852935 139.999756
[Rope2_Seg03]
31 140.000107 0.000030 0.000000 -4.697920 -7.438873 -8.366642 140.000107
32 140.000107 0.000030 0.000000 -4.234744 -7.266122 -7.923645 140.000107
[Rope2_Seg04]
31 139.999802 0.000000 -0.000060 -8.990358 -10.806177 -16.523537 139.999802
32 139.999802 0.000000 -0.000060 -8.279414 -10.878692 -15.581772 139.999802
[Rope2_Seg05]
31 139.999985 -0.000060 0.000119 -10.427417 -9.195069 -21.164047 139.999985
32 139.999985 -0.000060 0.000119 -10.473588 -10.080062 -21.352900 139.999985
[Rope2_Seg06]
31 139.999893 -0.000030 -0.000119 -6.307626 -8.120152 -11.074901 139.999893
32 139.999893 -0.000030 -0.000119 -6.463516 -8.041720 -11.477896 139.999893
[Rope2_Seg07]
31 139.999893 0.000060 -0.000060 -6.852516 -8.366420 -10.576922 139.999893
32 139.999893 0.000060 -0.000060 -6.688588 -8.324348 -10.250889 139.999893
[Rope2_Seg09]
31 121.338966 0.000089 -0.000060 33.793236 -1.359788 -0.847141 121.338966
32 121.338966 0.000089 -0.000060 33.793236 -1.359788 -0.847141 121.338966
[R_mid_hand01]
31 104.680779 11.144459 -10.335981 -16.212063 45.237240 70.462845 105.778534
32 104.680779 11.144459 -10.335981 -16.212063 45.237247 70.462852 105.778534
[R_mid_hand02]
31 104.070427 2.443552 8.231699 49.067371 -67.749794 39.286461 104.424065
32 104.070427 2.443552 8.231699 49.067368 -67.749779 39.286465 104.424065
[R_mid_hand03]
31 106.028137 -11.221827 -5.996406 -177.101105 15.551026 -76.585571 106.788818
32 106.028137 -11.221827 -5.996406 -177.101105 15.551026 -76.585571 106.788818
[spine02]
31 129.756927 0.001550 0.000119 0.461523 -4.033607 -14.398869 129.756927
32 129.756927 0.001550 0.000119 0.453092 -4.034625 -14.275592 129.756927
[spine03]
31 78.613945 0.081635 -4.899016 1.957590 3.802605 17.390261 78.766487
32 78.613937 0.081635 -4.899017 1.952833 3.805480 17.315050 78.766479
[pelvis]
31 169.435242 0.051022 0.000000 -0.068304 -0.178525 15.963641 169.435257
32 169.435242 0.051022 0.000000 -0.067246 -0.178731 15.808081 169.435257
[null_rope03_connect]
31 -1.257226 -2.466202 137.391083 -178.493500 -86.097702 -95.364670 137.418976
32 -1.257226 -2.466202 137.391083 -178.408249 -86.090889 -95.342255 137.418976
[null_rope04_connect]
31 -1.259640 -2.480268 -137.844437 -178.493500 -86.097702 -95.364670 137.872513
32 -1.259640 -2.480268 -137.844437 -178.408249 -86.090889 -95.342255 137.872513
[Rope3_Seg01]
31 0.000028 -0.000403 0.000000 -89.693275 -59.566696 46.182137 0.000404
32 0.000026 -0.000416 0.000000 -89.772156 -59.575474 46.265877 0.000416
[Rope3_Seg02]
31 139.999924 -0.000119 0.000060 8.598200 48.803223 -13.931375 139.999924
32 139.999924 -0.000119 0.000060 8.573987 48.712109 -13.876031 139.999924
[Rope3_Seg03]
31 139.999924 -0.000119 0.000119 8.537605 27.377722 -17.931011 139.999924
32 139.999924 -0.000119 0.000119 8.551642 27.488220 -17.959993 139.999924
[Rope3_Seg04]
31 139.999924 0.000119 0.000000 4.092922 11.160372 -7.449166 139.999924
32 139.999924 0.000119 0.000000 4.093938 11.160717 -7.455706 139.999924
[Rope3_Seg05]
31 139.999924 -0.000238 0.000060 6.675666 22.480228 -13.740906 139.999924
32 139.999924 -0.000238 0.000060 6.670324 22.448669 -13.715837 139.999924
[Rope3_Seg06]
31 139.999893 -0.000119 -0.000060 5.163499 20.334934 -17.857159 139.999893
32 139.999893 -0.000119 -0.000060 5.168978 20.363850 -17.869318 139.999893
[Rope3_Seg07]
31 139.999771 0.000060 -0.000119 2.522078 8.888271 -10.424148 139.999771
32 139.999771 0.000060 -0.000119 2.525264 8.898856 -10.435372 139.999771
[Rope3_Seg08]
31 139.999985 -0.000060 0.000000 1.375753 4.183103 -5.468741 139.999985
32 139.999985 -0.000060 0.000000 1.376989 4.188186 -5.473599 139.999985
[Rope3_Seg09]
31 90.185997 -0.000179 -0.000060 89.793228 -1.359877 -0.847183 90.185997
32 90.185997 -0.000179 -0.000060 89.793228 -1.359877 -0.847183 90.185997
[R_rear_hand01]
31 103.366196 -6.073594 -10.757982 -177.714203 24.565960 -73.910950 104.101845
32 103.366196 -6.073594 -10.757982 -177.714203 24.565960 -73.910950 104.101845
[R_rear_hand02]
31 100.509819 12.039542 -7.992327 -12.874827 36.868488 72.167213 101.543350
32 100.509819 12.039542 -7.992327 -12.874829 36.868488 72.167213 101.543350
[R_rear_hand03]
31 101.539970 5.215704 5.435467 71.484581 -71.816628 21.513813 101.819031
32 101.539970 5.215704 5.435467 71.484581 -71.816628 21.513813 101.819031
[Rope4_Seg01]
31 -0.000013 -0.000028 -0.000153 -18.971666 -36.634758 162.845535 0.000156
32 -0.000013 -0.000026 -0.000153 -18.939095 -36.751949 162.811569 0.000155
[Rope4_Seg02]
31 139.999985 0.000060 0.000119 -13.962547 10.075067 19.642027 139.999985
32 139.999985 0.000060 0.000119 -13.876105 10.105158 19.644623 139.999985
[Rope4_Seg03]
31 139.999924 0.000000 -0.000238 -5.857441 9.808556 8.244922 139.999924
32 139.999924 0.000000 -0.000238 -5.950225 9.875634 8.333939 139.999924
[Rope4_Seg04]
31 139.999985 0.000000 0.000119 -42.574131 -8.154413 21.393339 139.999985
32 139.999985 0.000000 0.000119 -42.257675 -7.937867 21.121862 139.999985
[Rope4_Seg05]
31 139.999802 -0.000060 -0.000119 -22.647648 -37.043083 12.827877 139.999802
32 139.999802 -0.000060 -0.000119 -22.940929 -37.009510 12.982448 139.999802
[Rope4_Seg06]
31 139.999924 0.000000 0.000060 -1.682497 -13.675528 0.128714 139.999924
32 139.999924 0.000000 0.000060 -1.715614 -13.840234 0.110259 139.999924
[Rope4_Seg07]
31 139.999802 0.000000 0.000000 -0.248772 -6.569907 -0.038551 139.999802
32 139.999802 0.000000 0.000000 -0.253451 -6.614505 -0.043138 139.999802
[Rope4_Seg08]
31 139.999924 0.000000 0.000119 -1.536114 -3.471538 -0.035912 139.999924
32 139.999924 0.000000 0.000119 -1.540926 -3.491394 -0.040447 139.999924
[Rope4_Seg09]
31 90.185791 0.000060 0.000060 -135.617828 2.228885 0.850567 90.185791
32 90.185791 0.000060 0.000060 -135.617828 2.228885 0.850567 90.185791
[L_rear_hand01]
31 101.696655 -8.392275 -7.654577 -12.874829 -36.868488 107.832764 102.329041
32 101.696655 -8.392275 -7.654577 -12.874829 -36.868488 107.832764 102.329041
[L_rear_hand02]
31 102.726799 -1.568258 5.773216 71.484581 71.816628 158.486160 102.900848
32 102.726799 -1.568258 5.773216 71.484581 71.816628 158.486160 102.900848
[L_rear_hand03]
31 104.552910 9.721220 -10.420293 -177.714203 -24.565960 -106.089035 105.519653
32 104.552910 9.721220 -10.420293 -177.714203 -24.565960 -106.089035 105.519653
